<?xml version="1.0" encoding="UTF-8"?>
<svg id="Warstwa_3" xmlns="http://www.w3.org/2000/svg" version="1.1" viewBox="0 0 1549.8 534.6">
  <!-- Generator: Adobe Illustrator 29.1.0, SVG Export Plug-In . SVG Version: 2.1.0 Build 142)  -->
  <defs>
    <style>
      .st0 {
        fill: #fff;
      }
    </style>
  </defs>
  <g>
    <path class="st0" d="M278.6,302.8c22.1-11.8,41.6-28.7,55.1-49.9,17.4-26.9,23.8-63,8.3-92.3-6.8-13.3-17.5-24.2-29.9-32.3,10.9-4.1,21.9-8.1,32.6-13.1-16.7-.7-33.3,2.2-49,7.4-31.9,10.1-62.4,29.3-81.4,57.5-3.6,5.3-6.8,10.9-9.5,16.7-2.6,5.6-4,11.6-4.6,17.7-.6-6.1-2.1-12.1-4.6-17.7-2.7-5.8-5.9-11.4-9.5-16.7-19-28.3-49.5-47.5-81.4-57.6-15.8-5.2-32.4-8.1-49-7.4,10.7,4.9,21.6,8.9,32.6,13.1-12.4,8.1-23.1,19-29.9,32.3-15.5,29.3-9.1,65.4,8.3,92.3,13.5,21.3,33,38.2,55.1,49.9,21.8,11.2,46.5,19.9,71.2,14.9-8.1-3.5-17-6.5-25.8-9.6-9.4-8.9-17.6-19.4-21.4-31.9-4-12.8-2.5-27.5,5-39-9.4,10.8-13.1,26.1-10.9,40.3,1.3,8.4,4.3,16.3,8.4,23.7-1.7-.7-3.3-1.3-4.9-2-18.1-7.8-35.9-20.1-50-35.4-7.2-13.1-2-29-2-29-7.6-1.6-13.6-.1-17.3,1.4-2-4.1-3.8-8.2-5.2-12.5.1-15.6,13.4-26.9,13.4-26.9-6.7-6.3-13.7-7.7-17.4-8.1.2-2.2.6-4.4,1-6.7,2.5-12.7,9.1-23.9,18-33.2,7-5.9,17.6-11,32.9-8.8,9,4.4,17.9,9.3,26.1,14.9,15.4,10.3,28.7,23.5,38.1,39.3,2.5,4.1,4.5,8.5,6.8,12.8,2.4,4.3,4.9,8.7,7.5,13,1.6,2.8,3.2,5.4,5.2,8h0c2-2.6,3.6-5.3,5.2-8,2.6-4.3,5.1-8.8,7.5-13,2.3-4.3,4.4-8.7,6.8-12.8,9.4-15.9,22.7-29,38.1-39.3,8.2-5.6,17-10.5,26.1-14.9,15.2-2.1,25.9,2.9,32.9,8.8,8.8,9.3,15.4,20.5,18,33.2.4,2.2.7,4.4,1,6.7-3.8.3-10.7,1.8-17.4,8.1,0,0,13.3,11.3,13.4,26.9-1.4,4.3-3.2,8.4-5.2,12.5-3.7-1.5-9.7-3-17.3-1.4,0,0,5.2,15.8-2,29-14.1,15.3-31.9,27.5-50,35.4-1.6.7-3.2,1.4-4.9,2,4.1-7.4,7.1-15.3,8.4-23.7,2.2-14.2-1.4-29.5-10.9-40.3,7.4,11.5,8.9,26.1,5,39-3.8,12.5-12,23-21.4,31.9-8.8,3.1-17.7,6.1-25.8,9.6,24.7,5,49.5-3.7,71.2-14.9h-.6Z"/>
    <path class="st0" d="M225.7,253.9c-2.4,18.8-13.6,17.9-25.8,49.6-12.2-31.7-23.4-30.8-25.8-49.6-1.3-19,12.6-24,25.8-24s27.1,5,25.8,24Z"/>
    <path class="st0" d="M270.8,227.1c16.1,0,29.2-13.1,29.2-29.2s-13.1-29.2-29.2-29.2-29.2,13.1-29.2,29.2,13.1,29.2,29.2,29.2ZM270.8,181.3c9.2,0,16.7,7.5,16.7,16.7s-7.5,16.7-16.7,16.7-16.7-7.5-16.7-16.7,7.5-16.7,16.7-16.7Z"/>
    <path class="st0" d="M302.2,105.4s-42.4-37.9-96.1-37.6v102.3s26.1-53.9,96.1-64.7h0Z"/>
    <path class="st0" d="M303.2,80.4c-.2,5.8-1.1,11.6-3.2,17.7,5.3-4,8.7-10.1,10.6-16.4,3.8-12.8,1.8-26.8-2.4-39.1-.2-.7-.5-1.4-.8-2.1,8,4.8,15,11,20.2,18.9,6,8.1,14,31.1,18.2,40.5l.2-29.7c0-4.6.3-9.1.6-13.7,11.4,20,14,36.6,8.2,63.5l-2.9,14.1c3.8-2.5,10-6.6,15.9-10.4-1.7,7.1-4.5,14-8.2,20.5-3.8,6.6-8,12.3-11.6,19.3,14-6,25.4-21.5,30.5-35.6,3.3-8.3,3.4-19.4,4.2-28.2l-10.2,6.7s-2.3,1.5-3.5,2.3c3.6-28.9-3.7-47.8-22.3-74.3l-10.6-15.9c-.1,8.7-.2,21.4-.8,31-6.2-8.2-14.1-15.2-23.1-20.2-8.5-5-20.6-9-29.7-13.1l6.9,14.4c7.6,15.5,14.6,32,13.7,49.6v.2Z"/>
    <path class="st0" d="M362.7,175c3.6,18,1.9,39.7-5.8,61.1,21.6,13.8,33.2,36,37.7,46.7,2.3-36.4-6.6-73.4-31.9-107.8h0Z"/>
    <path class="st0" d="M351.7,248.7c-4.4,9.4-10.1,18.7-16.9,27.3,32.4,31.3,39.9,69.7,41.3,80.1,4-9.3,7.5-18.8,10.4-28.4h0c1-48.4-26.7-72.9-34.8-79h0Z"/>
    <path class="st0" d="M325.4,286.7c-7,7.2-14.9,13.9-23.9,19.8,42.1,41.1,42,92.8,41,107.9,6.3-8.7,12.3-17.8,17.8-27.2h0c5.9-58.3-25.9-92.2-34.9-100.5h0Z"/>
    <path class="st0" d="M287.1,314.9c-8.2,4.1-17.1,7.7-26.6,10.5,51.6,48.1,41.1,118.7,36.1,141.1,8.4-7.8,16.8-16.4,24.8-25.6,17.5-76.8-22.9-116.5-34.3-126Z"/>
    <path class="st0" d="M244.4,329.2c-11.5,2.2-23.8,3.4-37,3.4v185.9h.7c7.8-12.6,36.1-65.8,29-156.7,40.6,64.2,9.6,132.5,2.8,145.9,12-6.1,24.9-14.6,38-25,26.1-91.5-21.3-142.1-33.5-153.3v-.2Z"/>
    <path class="st0" d="M99.9,197.9c0,16.1,13.1,29.2,29.2,29.2s29.2-13.1,29.2-29.2-13.1-29.2-29.2-29.2-29.2,13.1-29.2,29.2ZM145.8,197.9c0,9.2-7.5,16.7-16.7,16.7s-16.7-7.5-16.7-16.7,7.5-16.7,16.7-16.7,16.7,7.5,16.7,16.7Z"/>
    <path class="st0" d="M193.8,170.2v-102.4c-53.7-.3-96.1,37.6-96.1,37.6,70,10.8,96.1,64.7,96.1,64.7h0Z"/>
    <path class="st0" d="M51.8,163.5c-3.6-7.1-7.8-12.7-11.6-19.3-3.7-6.4-6.4-13.3-8.2-20.4,5.8,3.8,12,7.9,15.9,10.4l-2.9-14.1c-5.8-26.9-3.2-43.5,8.2-63.6.3,4.6.6,9.2.6,13.7l.2,29.7c4.1-9.3,12.3-32.5,18.2-40.5,5.3-7.9,12.2-14.1,20.2-18.9-.3.7-.5,1.4-.8,2.1-4.2,12.4-6.2,26.4-2.4,39.1,1.9,6.3,5.3,12.4,10.6,16.4-2-6.1-2.9-11.9-3.2-17.7-.9-17.6,6.1-34.1,13.7-49.6l6.9-14.4c-9,4-21.2,8.1-29.7,13.1-9,5-16.8,12-23.1,20.2-.6-9.7-.7-22.2-.8-31l-10.6,15.9c-18.6,26.5-25.9,45.4-22.3,74.3-1.3-.8-3.5-2.3-3.5-2.3l-10.2-6.7c.7,8.8.9,19.9,4.2,28.2,5.1,14.1,16.5,29.6,30.5,35.6v-.2Z"/>
    <path class="st0" d="M43,236.1c-7.7-21.4-9.5-43.1-5.8-61.1C11.9,209.4,3.1,246.4,5.3,282.8c4.6-10.7,16.1-32.9,37.7-46.7h0Z"/>
    <path class="st0" d="M65.1,276c-6.9-8.7-12.5-17.9-16.9-27.3-8.1,6.1-35.8,30.6-34.8,79h0c2.8,9.6,6.3,19.1,10.4,28.4,1.5-10.4,8.9-48.8,41.3-80.1h0Z"/>
    <path class="st0" d="M98.4,306.5c-9-5.9-16.9-12.6-23.9-19.8-9,8.3-40.8,42.2-34.9,100.5h0c5.5,9.4,11.5,18.5,17.8,27.2-1-15.1-1.1-66.9,41-107.9h0Z"/>
    <path class="st0" d="M139.4,325.3c-9.6-2.8-18.4-6.3-26.6-10.5-11.4,9.5-51.7,49.2-34.3,126,8.1,9.2,16.4,17.7,24.8,25.6-5-22.4-15.5-92.9,36.1-141.1h0Z"/>
    <path class="st0" d="M122,482.5c13.1,10.4,26,18.9,38,25-6.8-13.4-37.7-81.7,2.8-145.9-7.1,90.9,21.3,144.1,29,156.7h.7v-185.9c-13.2,0-25.6-1.2-37-3.4-12.2,11.2-59.6,61.8-33.5,153.3v.2Z"/>
  </g>
  <g>
    <path class="st0" d="M483.7,267.6c0-43.1,12-76.5,35.9-100.6,24.1-24.1,57.3-35.9,100.2-35.9s77.6,11.8,101.3,35.3c23.7,23.5,35.5,56.6,35.5,98.9s-5.3,56-15.6,75.8c-10.3,19.7-25.4,35-44.9,46.1-19.6,10.9-44,16.5-73.3,16.5s-54.3-4.7-73.9-14.3c-19.6-9.4-35.3-24.4-47.4-44.9-12-20.5-18.2-46.1-18.2-76.9h.4ZM565.1,268c0,26.7,4.9,45.7,14.9,57.3,10,11.7,23.3,17.5,40.4,17.5s31-5.6,40.6-17.1c9.6-11.5,14.5-31.8,14.5-61.3s-5.1-42.9-15-54.3c-10-11.5-23.5-17.1-40.8-17.1s-29.5,5.8-39.5,17.5c-10,11.7-14.9,30.8-14.9,57.7l-.2-.2Z"/>
    <path class="st0" d="M775.2,267.6c0-43.1,12-76.5,35.9-100.6,24.1-24.1,57.3-35.9,100.2-35.9s77.6,11.8,101.3,35.3,35.5,56.6,35.5,98.9-5.3,56-15.6,75.8c-10.3,19.7-25.4,35-44.9,46.1-19.6,10.9-44,16.5-73.3,16.5s-54.3-4.7-73.9-14.3c-19.6-9.4-35.3-24.4-47.4-44.9-12-20.5-18.2-46.1-18.2-76.9h.4ZM856.7,268c0,26.7,4.9,45.7,14.9,57.3,10,11.7,23.3,17.5,40.4,17.5s31-5.6,40.6-17.1c9.6-11.5,14.5-31.8,14.5-61.3s-5.1-42.9-15-54.3c-10-11.5-23.5-17.1-40.8-17.1s-29.5,5.8-39.5,17.5-14.9,30.8-14.9,57.7l-.2-.2Z"/>
    <path class="st0" d="M1070.8,135.6h135.4c29.5,0,51.5,7,66.2,21.1,14.7,14.1,22,34,22,59.8s-8.1,47.4-24.1,62.4c-16,15-40.4,22.6-73.3,22.6h-44.6v97.8h-81.8V135.6h.2ZM1152.6,247.8h19.9c15.8,0,26.7-2.6,33.1-8.3,6.4-5.5,9.6-12.4,9.6-20.9s-2.8-15.2-8.3-21.1c-5.5-5.8-15.8-8.6-31-8.6h-23.1v58.8h-.2Z"/>
    <path class="st0" d="M1305.2,312l77.5-4.9c1.7,12.6,5.1,22.2,10.3,28.8,8.5,10.7,20.3,16,35.9,16s20.7-2.8,26.9-8.3,9.4-11.8,9.4-19-3-13-9-18.4c-6-5.5-19.9-10.5-41.7-15.2-35.7-8.1-61.1-18.6-76.3-32-15.4-13.3-22.9-30.3-22.9-50.9s3.9-26.3,11.8-38.4c7.9-12,19.7-21.4,35.3-28.4,15.8-7,37.4-10.3,64.9-10.3s59.4,6.2,77.1,18.8,28.2,32.5,31.6,59.8l-76.7,4.5c-2.1-11.8-6.4-20.5-12.8-25.9-6.6-5.5-15.6-8.1-27.1-8.1s-16.5,2.1-21.4,6c-4.9,3.9-7.1,8.8-7.1,14.7s2.1,7.9,6,11.3c3.8,3.4,13,6.8,27.3,9.8,35.5,7.7,61.1,15.4,76.5,23.3,15.4,7.9,26.7,17.7,33.7,29.1,7,11.7,10.5,24.6,10.5,39.1s-4.7,32.5-14.1,46.8c-9.4,14.3-22.4,25-39.1,32.5-16.7,7.3-38,11.1-63.5,11.1-44.7,0-76-8.6-93.1-25.9-17.3-17.3-27.1-39.1-29.3-65.8h-.4Z"/>
  </g>
</svg>